<svg xmlns="http://www.w3.org/2000/svg" fill="none" viewBox="0 0 36 36"><path fill="#ccd2d3" d="M29.68 11.48a9 9 0 0 1-2.01-.24c1.59-2.63 2.33-3.4 3.74-3.4 1.14 0 1.72.69 1.72 1.5 0 1.63-1.8 2.14-3.45 2.14m-7.16-4.1a9 9 0 0 1-1.26-4.23c0-1.77.67-2.4 1.44-2.4.64 0 1.32.4 1.32 1.83 0 1.42-.55 3.06-1.5 4.8m10.32 13.35q-1.69 0-3.8-.65c1.27-1.26 2.74-2.1 4.17-2.1 1.3 0 1.99.58 1.99 1.32q.01 1.42-2.36 1.43m-10.83-4.38a35 35 0 0 1-3.49-2.86 28 28 0 0 0 4.05-4.89 9 9 0 0 0 2.74 2.42zm-8.53-8.98a10.4 10.4 0 0 1-1.5-4.79c0-1.44.68-1.84 1.31-1.84.77 0 1.44.64 1.44 2.41 0 1.2-.42 2.73-1.25 4.22m.51 8.98-3.3-5.33a9 9 0 0 0 2.74-2.42 28 28 0 0 0 4.05 4.88 34 34 0 0 1-3.49 2.87m14.97 14.43c-1.62 0-2.43-1.82-2.58-3.99 2.16.25 3.7 1.25 3.7 2.74 0 .76-.45 1.25-1.12 1.25M18 22.96l-3.63-6A37 37 0 0 0 18 13.98a36 36 0 0 0 3.63 2.98zM6.32 11.48c-1.66 0-3.45-.53-3.45-2.13 0-.82.58-1.52 1.72-1.52 1.4 0 2.15.77 3.74 3.4a9 9 0 0 1-2.01.25M18 29.42a11 11 0 0 0-7.63-3.31 9.6 9.6 0 0 0-2.21-5.74q2.26-.83 4.46-2.22L18 26.81l5.39-8.66q2.2 1.38 4.45 2.22a9.6 9.6 0 0 0-2.21 5.74c-2.85 0-5.76 1.37-7.63 3.3m0 5.82c-.77 0-1.27-.63-1.27-1.7A5.3 5.3 0 0 1 18 30.35c.8 1 1.27 2.12 1.27 3.2s-.5 1.69-1.27 1.69M3.15 20.74Q.78 20.71.8 19.3c0-.74.7-1.32 1.99-1.32 1.44 0 2.9.83 4.18 2.1q-2.13.64-3.8.64Zm3.9 10.04c-.68 0-1.13-.5-1.13-1.25 0-1.49 1.54-2.5 3.7-2.74-.15 2.17-.95 3.99-2.58 3.99M18 36c1.22 0 2.06-.96 2.06-2.46 0-1.25-.62-2.52-1.56-3.66a10.5 10.5 0 0 1 7.16-3.1c.15 2.35 1.16 4.74 3.27 4.74 1.15 0 1.94-.78 1.94-1.94 0-1.7-1.64-3.18-4.49-3.44.01-1.84.9-3.88 2.2-5.47 1.55.52 3.06.8 4.35.8 1.83 0 3.07-.7 3.07-2.16 0-1.06-.96-2.05-2.8-2.05-1.67 0-3.46 1-4.89 2.53a25 25 0 0 1-4.54-2.25l3.52-5.68q1.1.31 2.37.32c2.4 0 4.21-1.02 4.21-2.82 0-1.33-1.22-2.39-3.05-2.39-2.01 0-3.54 1.1-5.14 3.47-1.14-.63-2-1.5-2.7-2.46 1.14-1.92 1.8-3.78 1.8-5.42C24.78.72 23.73 0 22.7 0c-1.23 0-2.2 1.02-2.2 3.15A9 9 0 0 0 22.1 8a28 28 0 0 1-4.1 5 27 27 0 0 1-4.1-5 9 9 0 0 0 1.6-4.84c0-2.13-.97-3.15-2.2-3.15-1.03 0-2.1.72-2.1 2.56 0 1.64.68 3.5 1.82 5.42a8.4 8.4 0 0 1-2.7 2.46c-1.6-2.37-3.13-3.47-5.14-3.47-1.84 0-3.06 1.06-3.06 2.38 0 1.81 1.82 2.83 4.2 2.83q1.28 0 2.38-.32l3.53 5.68c-1.5.93-3.05 1.7-4.55 2.25-1.43-1.52-3.21-2.53-4.88-2.53-1.84 0-2.8 1-2.8 2.05 0 1.45 1.24 2.17 3.07 2.17 1.29 0 2.8-.3 4.34-.81a9 9 0 0 1 2.21 5.47c-2.85.26-4.49 1.73-4.49 3.44 0 1.16.8 1.94 1.94 1.94 2.12 0 3.12-2.38 3.27-4.74 2.67 0 5.43 1.32 7.16 3.1a6 6 0 0 0-1.56 3.66c0 1.5.84 2.46 2.06 2.46"/></svg>